<?xml version="1.0" encoding="UTF-8"?>
<svg id="Layer_2" data-name="Layer 2" xmlns="http://www.w3.org/2000/svg" viewBox="0 0 168.64 162">
  <defs>
    <style>
      .cls-1 {
        stroke-width: 0px;
      }

      .cls-1, .cls-2 {
        fill: none;
      }

      .cls-2 {
        stroke: #fff;
        stroke-miterlimit: 10;
        stroke-width: 2px;
      }
    </style>
  </defs>
  <g id="Layer_1-2" data-name="Layer 1">
    <rect class="cls-1" width="168.64" height="162" transform="translate(168.64 162) rotate(180)"/>
    <g>
      <path class="cls-2" d="m140.57,81c0,11.54-29.4,11.74-36.96,19.3-7.56,7.56-7.76,36.96-19.3,36.96s-11.74-29.4-19.3-36.96c-7.56-7.56-36.96-7.76-36.96-19.3s29.4-11.74,36.96-19.3c7.56-7.56,7.76-36.96,19.3-36.96s11.74,29.4,19.3,36.96,36.96,7.76,36.96,19.3Z"/>
      <path class="cls-2" d="m135.42,104.52c-4.82,10.48-31.61-1.63-41.64,2.08-10.03,3.71-22.5,30.33-32.98,25.51-10.48-4.82,1.63-31.61-2.08-41.64-3.71-10.03-30.33-22.5-25.51-32.98,4.82-10.48,31.61,1.63,41.64-2.08s22.5-30.33,32.98-25.51c10.48,4.82-1.63,31.61,2.08,41.64,3.71,10.03,30.33,22.5,25.51,32.98Z"/>
      <path class="cls-2" d="m139.14,93.62c-2.59,11.24-31.28,4.85-40.34,10.52-9.06,5.67-15.85,34.27-27.1,31.69-11.24-2.59-4.85-31.28-10.52-40.34-5.67-9.06-34.27-15.85-31.69-27.1,2.59-11.24,31.28-4.85,40.34-10.52,9.06-5.67,15.85-34.27,27.1-31.69s4.85,31.28,10.52,40.34c5.67,9.06,34.27,15.85,31.69,27.1Z"/>
      <path class="cls-2" d="m128.85,115.38c-7.05,9.13-30.44-8.67-41.05-7.31s-28.73,24.51-37.86,17.46c-9.13-7.05,8.67-30.44,7.31-41.05-1.36-10.6-24.51-28.73-17.46-37.86,7.05-9.13,30.44,8.67,41.05,7.31s28.73-24.51,37.86-17.46c9.13,7.05-8.67,30.44-7.31,41.05,1.36,10.6,24.51,28.73,17.46,37.86Z"/>
    </g>
  </g>
</svg>