<?xml version="1.0" encoding="UTF-8"?>
<svg id="Layer_2" data-name="Layer 2" xmlns="http://www.w3.org/2000/svg" viewBox="0 0 599.66 158.47">
  <defs>
    <style>
      .cls-1 {
        stroke-width: 16.02px;
      }

      .cls-1, .cls-2 {
        fill: none;
        stroke: #f0cee2;
        stroke-linecap: round;
        stroke-miterlimit: 10;
      }

      .cls-2 {
        stroke-width: 16.08px;
      }

      .cls-3 {
        fill: #e3e5e5;
      }

      .cls-3, .cls-4 {
        stroke-width: 0px;
      }

      .cls-4 {
        fill: #f0cee2;
      }
    </style>
  </defs>
  <g id="Layer_1-2" data-name="Layer 1">
    <g>
      <path class="cls-3" d="m5.71,6.57h1.04c3.15,0,5.71,2.56,5.71,5.71v90.31c0,3.15,2.56,5.71,5.71,5.71h57.09c3.15,0,5.71,2.56,5.71,5.71h0c0,3.15-2.56,5.71-5.71,5.71H5.71c-3.15,0-5.71-2.56-5.71-5.71V12.28c0-3.15,2.56-5.71,5.71-5.71Z"/>
      <path class="cls-3" d="m102.9,130.96h0c2.02,0,3.87,1.12,4.81,2.91,5.06,9.64,14.97,14.39,27.92,14.39,21.4,0,35.25-12.24,30.04-43.6-6.28,10.95-17.23,16.79-31.25,16.79-22.84,0-40.48-13.84-40.48-43.08v-38.67c0-3.01,2.44-5.45,5.45-5.45h.7c3.01,0,5.45,2.44,5.45,5.45v38.67c0,21.11,12.11,32.35,30.62,32.35s30.62-11.42,30.62-32.35v-38.67c0-3.01,2.44-5.45,5.45-5.45h.7c3.01,0,5.45,2.44,5.45,5.45v76.9c0,29.76-18.86,41.87-42.73,41.87-16.32,0-30.31-6.38-37.52-19.46-1.99-3.61.66-8.05,4.79-8.05Z"/>
      <path class="cls-3" d="m198.08,68.51c0-24.57,14.71-36.5,35.99-36.5,4.62,0,16.63.01,26.11,9.28,7.45,7.28,9.39,16.41,9.78,22.39.22,3.28-2.42,6.04-5.7,6.04h0c-3,0-5.47-2.32-5.7-5.31-.34-4.47-1.84-10.86-7.12-15.74-6.4-5.92-14.34-5.94-17.37-5.94-14.71,0-24.39,7.96-24.39,25.78v45.17c0,3.17-2.45,5.94-5.62,6.04-3.28.1-5.97-2.53-5.97-5.79v-45.41Z"/>
      <circle class="cls-4" cx="290.29" cy="8.82" r="8.82"/>
      <rect class="cls-3" x="284.58" y="34.25" width="11.59" height="85.46" rx="5.8" ry="5.8"/>
      <path class="cls-3" d="m319.03,95.67h1.94c2.19,0,4.07,1.46,4.71,3.55,2.24,7.27,10.13,12.19,22.55,12.19,14.88,0,23.18-6.92,23.18-16.09,0-10.38-10.9-11.59-23.18-13.15-15.4-1.9-32.87-4.33-32.87-23.18,0-16.09,12.63-26.99,32.7-26.99,17.1,0,28.55,8.04,31.78,19.41.88,3.11-1.51,6.19-4.75,6.19h-1.74c-2.16,0-4-1.45-4.67-3.5-2.19-6.72-9.52-11.55-20.79-11.55-13.15,0-20.93,6.57-20.93,15.4,0,10.55,11.07,11.76,23.18,13.32,13.32,1.73,33.04,3.81,33.04,23.18,0,16.26-13.67,27.51-34.95,27.51-18,0-30.33-8.17-33.9-19.91-.96-3.17,1.37-6.38,4.69-6.38Z"/>
      <g>
        <path class="cls-2" d="m428.94,60.98c.91-15.97,13.32-28.98,29.78-29,17.58-.01,30.83,12.68,31.52,29.5"/>
        <path class="cls-2" d="m530.32,60.98c.91-15.97,13.32-28.98,29.78-29,17.58-.01,30.83,12.68,31.52,29.5"/>
        <path class="cls-1" d="m467.19,99.46c1.74,2.22,15.42,19.05,38.97,19.39,24.73.36,39.2-17.76,40.74-19.76"/>
      </g>
    </g>
  </g>
</svg>