<?xml version="1.0" encoding="UTF-8"?>
<svg id="Layer_2" data-name="Layer 2" xmlns="http://www.w3.org/2000/svg" xmlns:xlink="http://www.w3.org/1999/xlink" viewBox="0 0 74 60">
  <defs>
    <style>
      .cls-1 {
        fill: url(#Degradado_sin_nombre_8414);
      }

      .cls-1, .cls-2, .cls-3 {
        stroke-width: 0px;
      }

      .cls-2 {
        fill: url(#Degradado_sin_nombre_482);
      }

      .cls-3 {
        fill: url(#Degradado_sin_nombre_483);
      }
    </style>
    <linearGradient id="Degradado_sin_nombre_8414" data-name="Degradado sin nombre 8414" x1="8.52" y1="43.9" x2="74.26" y2="3.6" gradientUnits="userSpaceOnUse">
      <stop offset="0" stop-color="#b080b7"/>
      <stop offset="1" stop-color="#efcde1"/>
    </linearGradient>
    <linearGradient id="Degradado_sin_nombre_482" data-name="Degradado sin nombre 482" x1="14.79" y1="5.51" x2="48.08" y2="38.37" gradientUnits="userSpaceOnUse">
      <stop offset="0" stop-color="#d6a2c9"/>
      <stop offset="1" stop-color="#121a3f"/>
    </linearGradient>
    <linearGradient id="Degradado_sin_nombre_483" data-name="Degradado sin nombre 483" x1="11.54" y1="8.81" x2="44.82" y2="41.67" gradientUnits="userSpaceOnUse">
      <stop offset="0" stop-color="#efcde1"/>
      <stop offset="1" stop-color="#121a3f"/>
    </linearGradient>
  </defs>
  <g id="Layer_1-2" data-name="Layer 1">
    <g>
      <path class="cls-1" d="m57.8,0H0v60h57.8c8.95,0,16.2-7.25,16.2-16.2v-27.61c0-8.95-7.25-16.2-16.2-16.2Z"/>
      <g>
        <path class="cls-2" d="m29.71,25.52c0-1.34-.06-2.69.01-4.03.12-2.34,1.91-4.33,4.22-4.81,3.06-.64,5.97,1.39,6.44,4.48.04.28.06.58.06.86,0,2.33,0,4.66,0,6.99,0,2.68-1.78,4.83-4.4,5.37-2.86.59-5.83-1.46-6.27-4.35-.1-.63-.09-1.28-.1-1.92-.02-.87,0-1.73,0-2.6.01,0,.02,0,.03,0Zm8.93,0c0-1.15,0-2.29,0-3.44,0-.3-.02-.6-.08-.89-.33-1.69-2.02-2.96-3.72-2.82-1.86.16-3.31,1.62-3.33,3.41-.03,2.5-.03,5,0,7.5.03,2.17,2.18,3.82,4.3,3.34,1.69-.38,2.81-1.77,2.83-3.51.01-1.19,0-2.39,0-3.58Z"/>
        <path class="cls-3" d="m34.03,39.86c-2.13-.22-4-1-5.58-2.4-1.93-1.71-3.05-3.85-3.32-6.42-.04-.34-.05-.69-.05-1.03,0-.52.38-.91.89-.91.51,0,.89.38.9.91.05,2.31.86,4.31,2.57,5.87,2.25,2.05,4.9,2.7,7.81,1.82,2.93-.89,4.77-2.91,5.51-5.88.14-.58.17-1.2.22-1.8.04-.54.4-.92.93-.91.5,0,.86.4.87.93.04,4.63-3.32,8.75-7.85,9.64-.36.07-.71.13-1.11.19,0,.08,0,.18,0,.28,0,.78,0,1.57,0,2.35,0,.54-.39.93-.91.92-.5,0-.88-.4-.88-.92,0-.88,0-1.75,0-2.65Z"/>
      </g>
    </g>
  </g>
</svg>